# xmcd CD database file
#
# Track frame offsets:
#	150
#	31355
#	55932
#	87815
#	117129
#	152690
#	185492
#	211612
#	241875
#	261122
#
# Disc length: 3855 seconds
#
# Revision: 0
# Processed by: cddbd v1.4PL0 Copyright (c) Steve Scherf et al.
# Submitted via: CDex 1.50
#
DISCID=780f0d0a
DTITLE=Joe Chindamo - The Joy Of Standards
DYEAR=2001
DGENRE=Jazz
TTITLE0=I Hear a Rhapsody
TTITLE1=Moon and Sand
TTITLE2=Bill Remembered
TTITLE3=Charade
TTITLE4=I Fall in Love Too Easily
TTITLE5=Old Folks
TTITLE6=Waltz For Matilda
TTITLE7=Gentle Rain
TTITLE8=Anopther Story
TTITLE9=When I Fall in Love
EXTD=YEAR: 2001
EXTT0=
EXTT1=
EXTT2=
EXTT3=
EXTT4=
EXTT5=
EXTT6=
EXTT7=
EXTT8=
EXTT9=
PLAYORDER=
